<svg width="1200" height="1200" xmlns="http://www.w3.org/2000/svg" xmlns:xlink="http://www.w3.org/1999/xlink" version="1.1"><g transform="scale(12.854915148589406) translate(-3.325167496999102, -3.3184865315755214)">                        <g fill="#111111"><g xmlns="http://www.w3.org/2000/svg" transform="translate(0,-952.36218)"><path style="font-size: medium; font-style: normal; font-variant: normal; font-weight: normal; font-stretch: normal; text-indent: 0; text-align: start; text-decoration: none; line-height: normal; letter-spacing: normal; word-spacing: normal; text-transform: none; direction: ltr; block-progression: tb; writing-mode: lr-tb; text-anchor: start; baseline-shift: baseline; opacity: 1; color: ; fill-opacity: 1; stroke-width: 2; marker: none; visibility: visible; display: inline; overflow: visible; enable-background: accumulate; font-family: Sans; -inkscape-font-specification: Sans" d="M 49.84375 8 A 1.0001 1.0001 0 0 0 49.25 8.3125 C 46.061983 11.815495 43.469579 16.519271 41.6875 22 L 9 22 A 1.0001 1.0001 0 0 0 8.8125 22 A 1.0001 1.0001 0 0 0 8 23 L 8 74 A 1.0001 1.0001 0 0 0 9 75 L 49 75 L 49 82.03125 C 41.444262 82.296516 34.85109 85.504939 31.1875 90.375 A 1.0001 1.0001 0 0 0 32 92 L 68 92 A 1.0001 1.0001 0 0 0 68.8125 90.375 C 65.148912 85.504939 58.555738 82.296516 51 82.03125 L 51 74 A 1.0001 1.0001 0 0 0 50 73 L 10 73 L 10 24 L 41.09375 24 C 39.750516 28.797796 39 34.103461 39 39.71875 C 39 40.146592 39.02229 40.575731 39.03125 41 L 30.46875 46.125 A 1.0001 1.0001 0 0 0 30 47 L 30 59 A 1.0001 1.0001 0 0 0 31.375 59.90625 L 41.3125 55.96875 C 41.441426 56.407926 41.54908 56.851325 41.6875 57.28125 A 1.0001 1.0001 0 0 0 42.625 58 L 57.375 58 A 1.0001 1.0001 0 0 0 58.3125 57.28125 C 58.45092 56.851325 58.558574 56.407926 58.6875 55.96875 L 68.625 59.90625 A 1.0001 1.0001 0 0 0 70 59 L 70 47 A 1.0001 1.0001 0 0 0 69.53125 46.125 L 60.96875 41 C 60.97771 40.575731 61 40.146592 61 39.71875 C 61 34.103461 60.249484 28.797796 58.90625 24 L 90 24 L 90 73 L 57.96875 73 A 1.0001 1.0001 0 1 0 57.96875 75 L 91 75 A 1.0001 1.0001 0 0 0 92 74 L 92 23 A 1.0001 1.0001 0 0 0 91 22 L 58.3125 22 C 56.53042 16.519271 53.938016 11.815495 50.75 8.3125 A 1.0001 1.0001 0 0 0 49.84375 8 z M 50 10.71875 C 55.355051 17.20885 59 27.69671 59 39.71875 C 59 45.59475 58.095325 51.1064 56.59375 56 L 43.40625 56 C 41.904675 51.1064 41 45.59475 41 39.71875 C 41 27.69671 44.644948 17.20885 50 10.71875 z M 50 27 C 47.25042 27 45 29.25042 45 32 C 45 34.74958 47.25042 37 50 37 C 52.74958 37 55 34.74958 55 32 C 55 29.25042 52.74958 27 50 27 z M 50 29 C 51.6687 29 53 30.3313 53 32 C 53 33.6687 51.6687 35 50 35 C 48.3313 35 47 33.6687 47 32 C 47 30.3313 48.3313 29 50 29 z M 39.125 43.28125 C 39.348909 47.067537 39.9225 50.681942 40.78125 54.0625 L 32 57.53125 L 32 47.5625 L 39.125 43.28125 z M 60.875 43.28125 L 68 47.5625 L 68 57.53125 L 59.21875 54.0625 C 60.077499 50.681942 60.65109 47.067537 60.875 43.28125 z M 50 84 C 56.469388 84 62.037526 86.4246 65.625 90 L 34.375 90 C 37.962476 86.4246 43.530612 84 50 84 z " transform="translate(0,952.36218)" stroke="none"/></g></g>        </g></svg>